<svg width="57" height="56" viewBox="0 0 57 56" fill="none" xmlns="http://www.w3.org/2000/svg">
<path d="M24.5315 11.6667L8.43149 39.6667C8.02211 40.3758 7.80648 41.1801 7.80627 41.9988C7.80606 42.8176 8.02127 43.6219 8.4303 44.3312C8.83931 45.0406 9.42775 45.6297 10.1365 46.0397C10.8453 46.4497 11.6494 46.6657 12.4682 46.6667H44.6682C45.4869 46.6657 46.291 46.4497 46.9999 46.0397C47.7085 45.6297 48.297 45.0406 48.706 44.3312C49.115 43.6219 49.3302 42.8176 49.3299 41.9988C49.3299 41.1801 49.1141 40.3758 48.7048 39.6667L32.6048 11.6667C32.1946 10.9595 31.6057 10.3725 30.8973 9.96442C30.1889 9.55637 29.3858 9.34158 28.5682 9.34158C27.7506 9.34158 26.9474 9.55637 26.239 9.96442C25.5306 10.3725 24.9417 10.9595 24.5315 11.6667Z" stroke="#FF0000" stroke-width="3.5" stroke-linecap="round" stroke-linejoin="round"/>
<path d="M28.5681 18.6667V32.6667" stroke="#FF0000" stroke-width="3.5" stroke-linecap="round" stroke-linejoin="round"/>
<rect x="0.568115" width="56" height="56" stroke="black"/>
</svg>
