<svg width="56" height="56" viewBox="0 0 56 56" fill="none" xmlns="http://www.w3.org/2000/svg">
<path d="M23.9633 11.6667L7.86333 39.6667C7.45395 40.3758 7.23832 41.1801 7.23811 41.9989C7.2379 42.8176 7.45311 43.6219 7.86214 44.3313C8.27115 45.0406 8.85959 45.6298 9.56834 46.0397C10.2771 46.4497 11.0812 46.6658 11.9 46.6667H44.1C44.9188 46.6658 45.7228 46.4497 46.4317 46.0397C47.1403 45.6298 47.7288 45.0406 48.1378 44.3313C48.5469 43.6219 48.762 42.8176 48.7618 41.9989C48.7618 41.1801 48.5459 40.3758 48.1367 39.6667L32.0367 11.6667C31.6265 10.9595 31.0375 10.3725 30.3291 9.96445C29.6207 9.5564 28.8176 9.34161 28 9.34161C27.1824 9.34161 26.3793 9.5564 25.6709 9.96445C24.9625 10.3725 24.3735 10.9595 23.9633 11.6667Z" stroke="#FF0000" stroke-width="3.5" stroke-linecap="round" stroke-linejoin="round"/>
<path d="M28 18.6667V32.6667" stroke="#FF0000" stroke-width="3.5" stroke-linecap="round" stroke-linejoin="round"/>
<rect width="56" height="56" stroke=""/>
</svg>
