<svg width="57" height="58" viewBox="0 0 57 58" fill="none" xmlns="http://www.w3.org/2000/svg">
<path d="M24.7 18.3125C24.7 14.3775 21.51 11.1875 17.575 11.1875C13.6399 11.1875 10.45 14.3775 10.45 18.3125C10.45 22.2475 13.6399 25.4375 17.575 25.4375C21.51 25.4375 24.7 22.2475 24.7 18.3125Z" stroke="white" stroke-width="3.5" stroke-linecap="round" stroke-linejoin="round"/>
<path d="M21.1375 32.5625H14.0125C12.045 32.5625 10.45 34.1575 10.45 36.125V43.25C10.45 45.2175 12.045 46.8125 14.0125 46.8125H21.1375C23.105 46.8125 24.7 45.2175 24.7 43.25V36.125C24.7 34.1575 23.105 32.5625 21.1375 32.5625Z" stroke="white" stroke-width="3.5" stroke-linecap="round" stroke-linejoin="round"/>
<path d="M46.075 39.6875C46.075 35.7524 42.8849 32.5625 38.95 32.5625C35.0148 32.5625 31.825 35.7524 31.825 39.6875C31.825 43.6226 35.0148 46.8125 38.95 46.8125C42.8849 46.8125 46.075 43.6226 46.075 39.6875Z" stroke="white" stroke-width="3.5" stroke-linecap="round" stroke-linejoin="round"/>
<path d="M39.1875 11.52L31.825 24.25H46.55L39.1875 11.52Z" stroke="white" stroke-width="3.5" stroke-linecap="round" stroke-linejoin="round"/>
</svg>
