<svg width="52" height="52" viewBox="0 0 52 52" fill="none" xmlns="http://www.w3.org/2000/svg">
<path d="M46.9299 22.62L44.8066 31.6767C42.9866 39.4983 39.3899 42.6617 32.6299 42.0117C31.5466 41.925 30.3766 41.73 29.1199 41.4267L25.4799 40.56C16.4449 38.415 13.6499 33.9517 15.7733 24.895L17.8966 15.8167C18.3299 13.975 18.8499 12.3717 19.4999 11.05C22.0349 5.80669 26.3466 4.39836 33.5833 6.11002L37.2016 6.95502C46.2799 9.07836 49.0533 13.5634 46.9299 22.62Z" stroke="white" stroke-width="3.5" stroke-linecap="round" stroke-linejoin="round"/>
<path d="M32.6299 42.0119C31.2866 42.9219 29.5966 43.6802 27.5383 44.3519L24.1149 45.4786C15.5132 48.2519 10.9849 45.9336 8.18988 37.3319L5.41655 28.7736C2.64322 20.1719 4.93988 15.6219 13.5416 12.8485L16.9649 11.7219C17.8532 11.4402 18.6982 11.2019 19.4999 11.0502C18.8499 12.3719 18.3299 13.9752 17.8965 15.8169L15.7732 24.8952C13.6499 33.9519 16.4449 38.4152 25.4799 40.5602L29.1199 41.4269C30.3766 41.7302 31.5466 41.9252 32.6299 42.0119Z" stroke="white" stroke-width="3.5" stroke-linecap="round" stroke-linejoin="round"/>
</svg>
