<svg width="53" height="54" viewBox="0 0 53 54" fill="none" xmlns="http://www.w3.org/2000/svg">
<path d="M26.765 28.7225C26.6104 28.7004 26.4117 28.7004 26.235 28.7225C22.3483 28.59 19.2566 25.41 19.2566 21.5012C19.2566 17.5041 22.4808 14.2579 26.5 14.2579C30.4971 14.2579 33.7433 17.5041 33.7433 21.5012C33.7212 25.41 30.6517 28.59 26.765 28.7225Z" stroke="white" stroke-width="3.5" stroke-linecap="round" stroke-linejoin="round"/>
<path d="M41.3842 43.2977C37.4533 46.8973 32.2417 49.0836 26.5 49.0836C20.7583 49.0836 15.5467 46.8973 11.6158 43.2977C11.8367 41.2219 13.1617 39.1902 15.5246 37.6002C21.5754 33.5811 31.4687 33.5811 37.4754 37.6002C39.8383 39.1902 41.1633 41.2219 41.3842 43.2977Z" stroke="white" stroke-width="3.5" stroke-linecap="round" stroke-linejoin="round"/>
<path d="M26.5 49.0833C38.6961 49.0833 48.5833 39.1962 48.5833 27C48.5833 14.8037 38.6961 4.91666 26.5 4.91666C14.3037 4.91666 4.41663 14.8037 4.41663 27C4.41663 39.1962 14.3037 49.0833 26.5 49.0833Z" stroke="white" stroke-width="3.5" stroke-linecap="round" stroke-linejoin="round"/>
</svg>
