<svg width="40" height="44" viewBox="0 0 40 44" fill="none" xmlns="http://www.w3.org/2000/svg">
<g id="Layer 22">
<path id="Vector" d="M37.9301 7.33H29.8701V2C29.8701 1.60218 29.712 1.22064 29.4307 0.93934C29.1494 0.658035 28.7679 0.5 28.3701 0.5H11.6301C11.2322 0.5 10.8507 0.658035 10.5694 0.93934C10.2881 1.22064 10.1301 1.60218 10.1301 2V7.33H2.07007C1.67224 7.33 1.29071 7.48804 1.00941 7.76934C0.728104 8.05065 0.570068 8.43218 0.570068 8.83C0.570068 9.22782 0.728104 9.60935 1.00941 9.89066C1.29071 10.172 1.67224 10.33 2.07007 10.33H4.00007V38C4.00272 39.4543 4.5823 40.8481 5.61158 41.8756C6.64087 42.903 8.03576 43.48 9.49007 43.48H30.5901C32.0305 43.459 33.4049 42.8727 34.417 41.8476C35.429 40.8224 35.9976 39.4406 36.0001 38V10.33H37.8901C38.2879 10.3353 38.6715 10.1824 38.9566 9.9048C39.2416 9.62725 39.4048 9.24783 39.4101 8.85C39.4154 8.45218 39.2624 8.06854 38.9849 7.78348C38.7073 7.49843 38.3279 7.3353 37.9301 7.33ZM13.1301 3.5H26.8701V7.33H13.1301V3.5ZM17.5001 33.5C17.5001 33.8978 17.342 34.2794 17.0607 34.5607C16.7794 34.842 16.3979 35 16.0001 35C15.6022 35 15.2207 34.842 14.9394 34.5607C14.6581 34.2794 14.5001 33.8978 14.5001 33.5V17.37C14.5001 16.9722 14.6581 16.5906 14.9394 16.3093C15.2207 16.028 15.6022 15.87 16.0001 15.87C16.3979 15.87 16.7794 16.028 17.0607 16.3093C17.342 16.5906 17.5001 16.9722 17.5001 17.37V33.5ZM25.5001 33.5C25.5001 33.8978 25.342 34.2794 25.0607 34.5607C24.7794 34.842 24.3979 35 24.0001 35C23.6022 35 23.2207 34.842 22.9394 34.5607C22.6581 34.2794 22.5001 33.8978 22.5001 33.5V17.37C22.5001 16.9722 22.6581 16.5906 22.9394 16.3093C23.2207 16.028 23.6022 15.87 24.0001 15.87C24.3979 15.87 24.7794 16.028 25.0607 16.3093C25.342 16.5906 25.5001 16.9722 25.5001 17.37V33.5Z" fill="#FF0000"/>
</g>
</svg>
