<svg width="52" height="52" viewBox="0 0 52 52" fill="none" xmlns="http://www.w3.org/2000/svg">
<g id="note 1">
<path id="Vector" d="M46.9301 22.62L44.8067 31.6767C42.9867 39.4983 39.3901 42.6617 32.6301 42.0117C31.5467 41.925 30.3767 41.73 29.1201 41.4267L25.4801 40.56C16.4451 38.415 13.6501 33.9517 15.7734 24.895L17.8967 15.8167C18.3301 13.975 18.8501 12.3717 19.5001 11.05C22.0351 5.80669 26.3467 4.39836 33.5834 6.11002L37.2017 6.95502C46.2801 9.07836 49.0534 13.5634 46.9301 22.62Z" stroke="white" stroke-width="3.5" stroke-linecap="round" stroke-linejoin="round"/>
<path id="Vector_2" d="M32.6301 42.0119C31.2867 42.9219 29.5967 43.6802 27.5384 44.3519L24.1151 45.4786C15.5134 48.2519 10.985 45.9336 8.19001 37.3319L5.41667 28.7736C2.64334 20.1719 4.94001 15.6219 13.5417 12.8485L16.965 11.7219C17.8533 11.4402 18.6983 11.2019 19.5 11.0502C18.85 12.3719 18.33 13.9752 17.8967 15.8169L15.7733 24.8952C13.65 33.9519 16.445 38.4152 25.4801 40.5602L29.1201 41.4269C30.3767 41.7302 31.5467 41.9252 32.6301 42.0119Z" stroke="white" stroke-width="3.5" stroke-linecap="round" stroke-linejoin="round"/>
</g>
</svg>
