<svg width="53" height="53" viewBox="0 0 53 53" fill="none" xmlns="http://www.w3.org/2000/svg">
<g id="profile-circle 1">
<path id="Vector" d="M26.765 28.2225C26.6104 28.2004 26.4117 28.2004 26.235 28.2225C22.3483 28.09 19.2566 24.91 19.2566 21.0012C19.2566 17.0041 22.4808 13.7579 26.5 13.7579C30.4971 13.7579 33.7433 17.0041 33.7433 21.0012C33.7212 24.91 30.6517 28.09 26.765 28.2225Z" stroke="white" stroke-width="3.5" stroke-linecap="round" stroke-linejoin="round"/>
<path id="Vector_2" d="M41.3843 42.7977C37.4534 46.3973 32.2418 48.5836 26.5001 48.5836C20.7585 48.5836 15.5468 46.3973 11.616 42.7977C11.8368 40.7219 13.1618 38.6902 15.5247 37.1002C21.5756 33.0811 31.4689 33.0811 37.4755 37.1002C39.8384 38.6902 41.1634 40.7219 41.3843 42.7977Z" stroke="white" stroke-width="3.5" stroke-linecap="round" stroke-linejoin="round"/>
<path id="Vector_3" d="M26.5001 48.5833C38.6963 48.5833 48.5834 38.6962 48.5834 26.5C48.5834 14.3037 38.6963 4.41667 26.5001 4.41667C14.3038 4.41667 4.41675 14.3037 4.41675 26.5C4.41675 38.6962 14.3038 48.5833 26.5001 48.5833Z" stroke="white" stroke-width="3.5" stroke-linecap="round" stroke-linejoin="round"/>
</g>
</svg>
